<mxfile host="Electron" agent="Mozilla/5.0 (Windows NT 10.0; Win64; x64) AppleWebKit/537.36 (KHTML, like Gecko) draw.io/24.7.17 Chrome/128.0.6613.36 Electron/32.0.1 Safari/537.36" version="24.7.17">
  <diagram name="第 1 页" id="8CtCuOsys3hR2p4QYqbM">
    <mxGraphModel dx="1221" dy="823" grid="1" gridSize="10" guides="1" tooltips="1" connect="1" arrows="1" fold="1" page="1" pageScale="1" pageWidth="827" pageHeight="1169" math="0" shadow="0">
      <root>
        <mxCell id="0" />
        <mxCell id="1" parent="0" />
        <mxCell id="Sqm4q17-4cD9rXe7hXDx-5" value="" style="edgeStyle=orthogonalEdgeStyle;rounded=0;orthogonalLoop=1;jettySize=auto;html=1;" parent="1" source="AAzNbXR31eo6BCxiC4Rg-1" target="Sqm4q17-4cD9rXe7hXDx-2" edge="1">
          <mxGeometry relative="1" as="geometry" />
        </mxCell>
        <mxCell id="AAzNbXR31eo6BCxiC4Rg-1" value="&lt;font style=&quot;font-size: 14px;&quot;&gt;程序开始&lt;/font&gt;" style="ellipse;whiteSpace=wrap;html=1;" parent="1" vertex="1">
          <mxGeometry x="360" y="160" width="120" height="40" as="geometry" />
        </mxCell>
        <mxCell id="Sqm4q17-4cD9rXe7hXDx-1" value="&lt;font style=&quot;font-size: 14px;&quot;&gt;程序结束&lt;/font&gt;" style="ellipse;whiteSpace=wrap;html=1;" parent="1" vertex="1">
          <mxGeometry x="540" y="320" width="120" height="40" as="geometry" />
        </mxCell>
        <mxCell id="IWa2Fx2lJYsl5mEyNaZM-39" value="" style="edgeStyle=orthogonalEdgeStyle;rounded=0;orthogonalLoop=1;jettySize=auto;html=1;" edge="1" parent="1" source="Sqm4q17-4cD9rXe7hXDx-2" target="IWa2Fx2lJYsl5mEyNaZM-34">
          <mxGeometry relative="1" as="geometry" />
        </mxCell>
        <mxCell id="Sqm4q17-4cD9rXe7hXDx-2" value="&lt;span style=&quot;font-size: 14px;&quot;&gt;接受单字符输入&lt;/span&gt;" style="shape=parallelogram;perimeter=parallelogramPerimeter;whiteSpace=wrap;html=1;fixedSize=1;" parent="1" vertex="1">
          <mxGeometry x="350" y="240" width="140" height="40" as="geometry" />
        </mxCell>
        <mxCell id="IWa2Fx2lJYsl5mEyNaZM-40" value="" style="edgeStyle=orthogonalEdgeStyle;rounded=0;orthogonalLoop=1;jettySize=auto;html=1;" edge="1" parent="1" source="IWa2Fx2lJYsl5mEyNaZM-34" target="Sqm4q17-4cD9rXe7hXDx-1">
          <mxGeometry relative="1" as="geometry" />
        </mxCell>
        <mxCell id="IWa2Fx2lJYsl5mEyNaZM-41" value="&lt;font style=&quot;font-size: 14px;&quot;&gt;否&lt;/font&gt;" style="edgeLabel;html=1;align=center;verticalAlign=middle;resizable=0;points=[];" vertex="1" connectable="0" parent="IWa2Fx2lJYsl5mEyNaZM-40">
          <mxGeometry x="-0.0286" y="4" relative="1" as="geometry">
            <mxPoint x="-4" y="-6" as="offset" />
          </mxGeometry>
        </mxCell>
        <mxCell id="IWa2Fx2lJYsl5mEyNaZM-49" style="edgeStyle=orthogonalEdgeStyle;rounded=0;orthogonalLoop=1;jettySize=auto;html=1;exitX=0.5;exitY=1;exitDx=0;exitDy=0;" edge="1" parent="1" source="IWa2Fx2lJYsl5mEyNaZM-34" target="IWa2Fx2lJYsl5mEyNaZM-42">
          <mxGeometry relative="1" as="geometry" />
        </mxCell>
        <mxCell id="IWa2Fx2lJYsl5mEyNaZM-34" value="&lt;font style=&quot;font-size: 14px;&quot;&gt;c != EOF&lt;/font&gt;" style="rhombus;whiteSpace=wrap;html=1;" vertex="1" parent="1">
          <mxGeometry x="360" y="320" width="120" height="40" as="geometry" />
        </mxCell>
        <mxCell id="IWa2Fx2lJYsl5mEyNaZM-50" value="" style="edgeStyle=orthogonalEdgeStyle;rounded=0;orthogonalLoop=1;jettySize=auto;html=1;" edge="1" parent="1" source="IWa2Fx2lJYsl5mEyNaZM-42" target="IWa2Fx2lJYsl5mEyNaZM-45">
          <mxGeometry relative="1" as="geometry" />
        </mxCell>
        <mxCell id="IWa2Fx2lJYsl5mEyNaZM-42" value="若输入的字符是\n&lt;div style=&quot;font-size: 14px;&quot;&gt;active = 1&lt;/div&gt;" style="rounded=0;whiteSpace=wrap;html=1;fontSize=14;" vertex="1" parent="1">
          <mxGeometry x="360" y="390" width="120" height="40" as="geometry" />
        </mxCell>
        <mxCell id="IWa2Fx2lJYsl5mEyNaZM-54" value="" style="edgeStyle=orthogonalEdgeStyle;rounded=0;orthogonalLoop=1;jettySize=auto;html=1;" edge="1" parent="1" source="IWa2Fx2lJYsl5mEyNaZM-45" target="IWa2Fx2lJYsl5mEyNaZM-51">
          <mxGeometry relative="1" as="geometry" />
        </mxCell>
        <mxCell id="IWa2Fx2lJYsl5mEyNaZM-55" value="是" style="edgeLabel;html=1;align=center;verticalAlign=middle;resizable=0;points=[];fontSize=14;" vertex="1" connectable="0" parent="IWa2Fx2lJYsl5mEyNaZM-54">
          <mxGeometry x="-0.2167" relative="1" as="geometry">
            <mxPoint x="10" as="offset" />
          </mxGeometry>
        </mxCell>
        <mxCell id="IWa2Fx2lJYsl5mEyNaZM-58" value="" style="edgeStyle=orthogonalEdgeStyle;rounded=0;orthogonalLoop=1;jettySize=auto;html=1;" edge="1" parent="1" source="IWa2Fx2lJYsl5mEyNaZM-45" target="IWa2Fx2lJYsl5mEyNaZM-57">
          <mxGeometry relative="1" as="geometry" />
        </mxCell>
        <mxCell id="IWa2Fx2lJYsl5mEyNaZM-45" value="active == 1&lt;br style=&quot;font-size: 14px;&quot;&gt;且输入的字符是‘ ’" style="rhombus;whiteSpace=wrap;html=1;fontSize=14;" vertex="1" parent="1">
          <mxGeometry x="337.5" y="460" width="165" height="80" as="geometry" />
        </mxCell>
        <mxCell id="IWa2Fx2lJYsl5mEyNaZM-65" style="edgeStyle=orthogonalEdgeStyle;rounded=0;orthogonalLoop=1;jettySize=auto;html=1;exitX=0;exitY=0.5;exitDx=0;exitDy=0;" edge="1" parent="1" source="IWa2Fx2lJYsl5mEyNaZM-51">
          <mxGeometry relative="1" as="geometry">
            <mxPoint x="420" y="300" as="targetPoint" />
            <Array as="points">
              <mxPoint x="320" y="600" />
              <mxPoint x="320" y="300" />
            </Array>
          </mxGeometry>
        </mxCell>
        <mxCell id="IWa2Fx2lJYsl5mEyNaZM-51" value="&lt;font style=&quot;font-size: 14px;&quot;&gt;忽略该字符&lt;/font&gt;" style="rounded=0;whiteSpace=wrap;html=1;" vertex="1" parent="1">
          <mxGeometry x="360" y="580" width="120" height="40" as="geometry" />
        </mxCell>
        <mxCell id="IWa2Fx2lJYsl5mEyNaZM-67" style="edgeStyle=orthogonalEdgeStyle;rounded=0;orthogonalLoop=1;jettySize=auto;html=1;exitX=0;exitY=0.5;exitDx=0;exitDy=0;" edge="1" parent="1" source="IWa2Fx2lJYsl5mEyNaZM-52">
          <mxGeometry relative="1" as="geometry">
            <mxPoint x="500" y="700" as="targetPoint" />
          </mxGeometry>
        </mxCell>
        <mxCell id="IWa2Fx2lJYsl5mEyNaZM-52" value="&lt;font style=&quot;font-size: 14px;&quot;&gt;将字符存储在数组内&lt;/font&gt;&lt;div style=&quot;font-size: 14px;&quot;&gt;&lt;font style=&quot;font-size: 14px;&quot;&gt;active = 0&lt;/font&gt;&lt;/div&gt;" style="rounded=0;whiteSpace=wrap;html=1;" vertex="1" parent="1">
          <mxGeometry x="530" y="580" width="140" height="40" as="geometry" />
        </mxCell>
        <mxCell id="IWa2Fx2lJYsl5mEyNaZM-59" value="" style="edgeStyle=orthogonalEdgeStyle;rounded=0;orthogonalLoop=1;jettySize=auto;html=1;" edge="1" parent="1" source="IWa2Fx2lJYsl5mEyNaZM-57" target="IWa2Fx2lJYsl5mEyNaZM-52">
          <mxGeometry relative="1" as="geometry" />
        </mxCell>
        <mxCell id="IWa2Fx2lJYsl5mEyNaZM-62" value="&lt;font style=&quot;font-size: 14px;&quot;&gt;是&lt;/font&gt;" style="edgeLabel;html=1;align=center;verticalAlign=middle;resizable=0;points=[];" vertex="1" connectable="0" parent="IWa2Fx2lJYsl5mEyNaZM-59">
          <mxGeometry x="-0.1444" y="-2" relative="1" as="geometry">
            <mxPoint x="12" y="4" as="offset" />
          </mxGeometry>
        </mxCell>
        <mxCell id="IWa2Fx2lJYsl5mEyNaZM-60" style="edgeStyle=orthogonalEdgeStyle;rounded=0;orthogonalLoop=1;jettySize=auto;html=1;exitX=1;exitY=0.5;exitDx=0;exitDy=0;entryX=0.5;entryY=0;entryDx=0;entryDy=0;" edge="1" parent="1" source="IWa2Fx2lJYsl5mEyNaZM-57" target="IWa2Fx2lJYsl5mEyNaZM-63">
          <mxGeometry relative="1" as="geometry">
            <mxPoint x="600" y="680" as="targetPoint" />
            <Array as="points">
              <mxPoint x="700" y="500" />
              <mxPoint x="700" y="640" />
              <mxPoint x="601" y="640" />
            </Array>
          </mxGeometry>
        </mxCell>
        <mxCell id="IWa2Fx2lJYsl5mEyNaZM-61" value="&lt;font style=&quot;font-size: 14px;&quot;&gt;否&lt;/font&gt;" style="edgeLabel;html=1;align=center;verticalAlign=middle;resizable=0;points=[];" vertex="1" connectable="0" parent="IWa2Fx2lJYsl5mEyNaZM-60">
          <mxGeometry x="-0.8908" y="-3" relative="1" as="geometry">
            <mxPoint x="51" y="47" as="offset" />
          </mxGeometry>
        </mxCell>
        <mxCell id="IWa2Fx2lJYsl5mEyNaZM-57" value="c !&lt;span style=&quot;background-color: initial;&quot;&gt;= &#39;\t&#39;&lt;/span&gt;" style="rhombus;whiteSpace=wrap;html=1;fontSize=14;" vertex="1" parent="1">
          <mxGeometry x="560" y="480" width="80" height="40" as="geometry" />
        </mxCell>
        <mxCell id="IWa2Fx2lJYsl5mEyNaZM-66" style="edgeStyle=orthogonalEdgeStyle;rounded=0;orthogonalLoop=1;jettySize=auto;html=1;exitX=0;exitY=0.5;exitDx=0;exitDy=0;" edge="1" parent="1" source="IWa2Fx2lJYsl5mEyNaZM-63">
          <mxGeometry relative="1" as="geometry">
            <mxPoint x="320" y="600" as="targetPoint" />
          </mxGeometry>
        </mxCell>
        <mxCell id="IWa2Fx2lJYsl5mEyNaZM-63" value="&lt;font style=&quot;font-size: 14px;&quot;&gt;忽略该字符&lt;/font&gt;" style="rounded=0;whiteSpace=wrap;html=1;" vertex="1" parent="1">
          <mxGeometry x="540" y="680" width="120" height="40" as="geometry" />
        </mxCell>
      </root>
    </mxGraphModel>
  </diagram>
</mxfile>
